<svg xmlns="http://www.w3.org/2000/svg" width="12" height="12" viewBox="0 0 12 12">
  <defs>
    <style>
      .cls-1 {
        fill: #ea2260;
        fill-rule: evenodd;
      }
    </style>
  </defs>
  <path id="icon__phone" class="cls-1" d="M390.645,24.009l-1.733-1.743a1.231,1.231,0,0,0-.878-0.361,1.293,1.293,0,0,0-.921.386l-0.674.678a7.754,7.754,0,0,1-3.361-3.378l0.675-.678a1.285,1.285,0,0,0,.023-1.809l-1.732-1.742A1.227,1.227,0,0,0,381.166,15a1.292,1.292,0,0,0-.9.37,3.73,3.73,0,0,0-1.174,2.15c-0.39,1.913.5,3.753,3.09,6.353,2.887,2.9,5.352,3.127,6.039,3.127a2.327,2.327,0,0,0,.252-0.012,2.858,2.858,0,0,0,2.181-1.2A1.324,1.324,0,0,0,390.645,24.009ZM390.07,25.32a2.117,2.117,0,0,1-1.688.925s-0.058.006-.166,0.006c-0.614,0-2.828-.209-5.513-2.908-2.383-2.4-3.22-4.041-2.887-5.674a2.94,2.94,0,0,1,.912-1.718l0.022-.017,0.02-.019a0.554,0.554,0,0,1,.4-0.168,0.489,0.489,0,0,1,.351.143l1.733,1.742a0.534,0.534,0,0,1-.023.751l-0.764.767-0.012.013a0.614,0.614,0,0,0-.066.712,8.558,8.558,0,0,0,3.764,3.786,0.671,0.671,0,0,0,.322.086,0.6,0.6,0,0,0,.452-0.209l0.716-.72a0.556,0.556,0,0,1,.395-0.167,0.493,0.493,0,0,1,.352.142l1.732,1.742A0.591,0.591,0,0,1,390.07,25.32Zm-3.806-8.488a3.539,3.539,0,0,1,2.906,2.939,0.373,0.373,0,0,0,.369.334l0.041,0a0.374,0.374,0,0,0,.33-0.412,4.283,4.283,0,0,0-3.561-3.6A0.374,0.374,0,0,0,386.264,16.832ZM385.916,18.4a2.234,2.234,0,0,1,1.749,1.768,0.372,0.372,0,0,0,.369.334l0.041,0a0.372,0.372,0,0,0,.329-0.412,2.968,2.968,0,0,0-2.4-2.43A0.374,0.374,0,0,0,385.916,18.4Z" transform="translate(-379 -15)"/>
</svg>
