<svg xmlns="http://www.w3.org/2000/svg" width="15" height="15" viewBox="0 0 15 15">
  <defs>
    <style>
      .cls-1 {
        fill: #ecc7d0;
        fill-rule: evenodd;
      }
    </style>
  </defs>
  <path id="icon__lens" class="cls-1" d="M1310.01,102.709a5.87,5.87,0,1,0-.8,8.967,1.3,1.3,0,0,0,.33.622l3.34,3.332a1.238,1.238,0,1,0,1.75-1.753l-3.33-3.333a1.273,1.273,0,0,0-.62-0.335A5.877,5.877,0,0,0,1310.01,102.709Zm-1.05,7.25a4.383,4.383,0,1,1,0-6.2A4.39,4.39,0,0,1,1308.96,109.959Z" transform="translate(-1300 -101)"/>
</svg>
