<svg xmlns="http://www.w3.org/2000/svg" width="9" height="12" viewBox="0 0 9 12">
  <defs>
    <style>
      .cls-1 {
        fill: #ea2260;
        fill-rule: evenodd;
      }
    </style>
  </defs>
  <path id="icon__login" class="cls-1" d="M1394.68,18.406h-0.8V16.479a2.382,2.382,0,1,0-4.76,0v1.927h-0.8a1.365,1.365,0,0,0-1.32,1.406v4.781A1.365,1.365,0,0,0,1388.32,26h6.36a1.365,1.365,0,0,0,1.32-1.406V19.812A1.365,1.365,0,0,0,1394.68,18.406ZM1390,16.479a1.5,1.5,0,1,1,3,0v1.927h-3V16.479h0Zm5.12,8.115a0.457,0.457,0,0,1-.44.469h-6.36a0.457,0.457,0,0,1-.44-0.469V19.812a0.457,0.457,0,0,1,.44-0.469h6.36a0.457,0.457,0,0,1,.44.469v4.781ZM1391.5,20.7a0.847,0.847,0,0,0-.82.867,0.872,0.872,0,0,0,.38.729v1.029a0.441,0.441,0,1,0,.88,0V22.3a0.874,0.874,0,0,0,.38-0.73A0.847,0.847,0,0,0,1391.5,20.7Z" transform="translate(-1387 -14)"/>
</svg>
