<svg xmlns="http://www.w3.org/2000/svg" width="12" height="9" viewBox="0 0 12 9">
  <defs>
    <style>
      .cls-1 {
        fill: #ea2260;
        fill-rule: evenodd;
      }
    </style>
  </defs>
  <path id="icon__mail" class="cls-1" d="M499.593,16h-9.187A1.423,1.423,0,0,0,489,17.436v6.128A1.423,1.423,0,0,0,490.406,25h9.187A1.423,1.423,0,0,0,501,23.564V17.436A1.423,1.423,0,0,0,499.593,16Zm0.469,7.564a0.474,0.474,0,0,1-.469.479h-9.187a0.475,0.475,0,0,1-.469-0.479V17.436a0.475,0.475,0,0,1,.469-0.479h9.187a0.474,0.474,0,0,1,.469.479v6.128ZM499.983,16.6L495,20.382,490.017,16.6l-0.56.769L495,21.575l5.542-4.21Z" transform="translate(-489 -16)"/>
</svg>
