<svg xmlns="http://www.w3.org/2000/svg" width="26" height="31" viewBox="0 0 26 31">
  <defs>
    <style>
      .cls-1 {
        fill-rule: evenodd;
      }
    </style>
  </defs>
  <path id="icon__basket" class="cls-1" d="M1492.18,131h-20.37a2.821,2.821,0,0,1-2.76-3.365l1.86-16.983a2.847,2.847,0,0,1,2.77-2.347l16.63,0a2.826,2.826,0,0,1,2.76,2.262l1.88,17.154a2.774,2.774,0,0,1-.59,2.251A2.813,2.813,0,0,1,1492.18,131Zm-1.87-20.761-16.63,0a0.892,0.892,0,0,0-.86.7l-1.85,16.982a0.95,0.95,0,0,0,.16.813,0.874,0.874,0,0,0,.68.321h20.37a0.875,0.875,0,0,0,.86-1.049l-1.88-17.153A0.874,0.874,0,0,0,1490.31,110.238Zm-2.1,4.256a0.96,0.96,0,0,1-.95-0.822l-1.6-10.381a1.792,1.792,0,0,0-1.74-1.354h-3.84a1.812,1.812,0,0,0-1.76,1.414l-1.58,10.321a0.975,0.975,0,0,1-1.11.81,0.962,0.962,0,0,1-.8-1.105L1476.42,103a3.779,3.779,0,0,1,3.66-3h3.84a3.748,3.748,0,0,1,3.64,2.937l1.61,10.441a0.969,0.969,0,0,1-.81,1.105A0.948,0.948,0,0,1,1488.21,114.494Z" transform="translate(-1469 -100)"/>
</svg>
