<svg xmlns="http://www.w3.org/2000/svg" width="12" height="13" viewBox="0 0 12 13">
  <defs>
    <style>
      .cls-1 {
        fill: #ea2260;
        fill-rule: evenodd;
      }
    </style>
  </defs>
  <path id="icon__myaccount" class="cls-1" d="M1513.19,20.881h1.16a3.342,3.342,0,0,1,1.49.357l0.4-.8a4.209,4.209,0,0,0-1.89-.451h-1.16a4.179,4.179,0,0,0-4.19,4.159V25.19a0.448,0.448,0,0,0,.45.449h5.5v-0.9h-5.05v-0.6A3.282,3.282,0,0,1,1513.19,20.881ZM1513.76,14a2.753,2.753,0,1,0,2.78,2.752A2.763,2.763,0,0,0,1513.76,14Zm0,4.608a1.855,1.855,0,1,1,1.87-1.855A1.866,1.866,0,0,1,1513.76,18.607Zm3.74,1.451a3.471,3.471,0,1,0,3.5,3.47A3.489,3.489,0,0,0,1517.5,20.058Zm0,6.044a2.573,2.573,0,1,1,2.6-2.573A2.584,2.584,0,0,1,1517.5,26.1Zm0-4.264a0.448,0.448,0,0,0-.45.449v2.483a0.45,0.45,0,0,0,.9,0V22.287A0.448,0.448,0,0,0,1517.5,21.839Zm1.25,1.241h-2.5a0.449,0.449,0,1,0,0,.9h2.5A0.449,0.449,0,1,0,1518.75,23.08Z" transform="translate(-1509 -14)"/>
</svg>
